<svg id="Layer_1" data-name="Layer 1" xmlns="http://www.w3.org/2000/svg" viewBox="0 0 1173.27 330.99"><defs><style>.cls-1{fill:#0051a5;}.cls-2{fill:#009cdc;}</style></defs><path class="cls-1" d="M16.53,48.5H5.83V11.32c0-1.56,0-2.93-.14-4.12a5.49,5.49,0,0,0-1.1-3A5.34,5.34,0,0,0,3.15,3.09a3.43,3.43,0,0,0-1.58-.62V1.23h15Zm82.28,0h-9.6L72.88,14l.34,34.51H63.14V11.32c0-1.56,0-2.93-.14-4.12a5.49,5.49,0,0,0-1.1-3,4.2,4.2,0,0,0-1.37-1.09,3.51,3.51,0,0,0-1.64-.62V1.23H75.35l14,29.5-.48-29.5h10ZM164.2,8.37V48.5H153.5V8.37H140.74V1.23H177V8.37Zm70.44,14.41a7.08,7.08,0,0,0,3.43-.76,7.58,7.58,0,0,0,2.27-1.85,7.07,7.07,0,0,0,1.23-2.47,8.34,8.34,0,0,0,.41-2.47,7.15,7.15,0,0,0-.48-2.61,6,6,0,0,0-1.3-2.19,6.11,6.11,0,0,0-2.27-1.51,6.94,6.94,0,0,0-3-.62h-5.29V22.78Zm11,25.72L234,29.84h-4.39V48.5h-10.7V11.32c0-1.56,0-2.93-.13-4.12a5.57,5.57,0,0,0-1.1-3,4.31,4.31,0,0,0-1.37-1.09,3.51,3.51,0,0,0-1.65-.62V1.23h21.88a24.83,24.83,0,0,1,6.25.76A15.09,15.09,0,0,1,248,4.39a12.69,12.69,0,0,1,3.57,4.25A13.49,13.49,0,0,1,253,15a12.19,12.19,0,0,1-1,4.81,14.84,14.84,0,0,1-2.33,3.91,11.52,11.52,0,0,1-2.27,2.19,12.53,12.53,0,0,1-2.61,1.58L258.45,48.5Zm93.31-23.6a29.54,29.54,0,0,1-1.71,10.36,23.82,23.82,0,0,1-4.67,7.82A19.88,19.88,0,0,1,325.62,48a20.62,20.62,0,0,1-8.37,1.72A21.11,21.11,0,0,1,308.82,48a20.61,20.61,0,0,1-7-4.94,23.82,23.82,0,0,1-4.67-7.82,29.54,29.54,0,0,1-1.71-10.36,29.58,29.58,0,0,1,1.71-10.36,23.82,23.82,0,0,1,4.67-7.82,20.25,20.25,0,0,1,7-5A20.94,20.94,0,0,1,317.25,0a20.45,20.45,0,0,1,8.37,1.72,19.54,19.54,0,0,1,6.93,5,23.82,23.82,0,0,1,4.67,7.82A29.58,29.58,0,0,1,338.93,24.9Zm-11.25,0a32.17,32.17,0,0,0-.75-7.27,17.85,17.85,0,0,0-2.2-5.49,9.88,9.88,0,0,0-3.29-3.43,7.62,7.62,0,0,0-4.19-1.23A7.72,7.72,0,0,0,313,8.71a9.88,9.88,0,0,0-3.29,3.43,18.61,18.61,0,0,0-2.13,5.49,32.17,32.17,0,0,0-.75,7.27,32.17,32.17,0,0,0,.75,7.27,18.59,18.59,0,0,0,2.13,5.42,10.49,10.49,0,0,0,3.29,3.5,8,8,0,0,0,4.25,1.17,7.91,7.91,0,0,0,4.19-1.17,10.49,10.49,0,0,0,3.29-3.5,17.83,17.83,0,0,0,2.2-5.42A32.17,32.17,0,0,0,327.68,24.9ZM393.4,41.5h2.88a15.31,15.31,0,0,0,6.24-1.16,12.52,12.52,0,0,0,4.53-3.3,14.76,14.76,0,0,0,2.75-5.48,23.55,23.55,0,0,0,0-13.31,14.85,14.85,0,0,0-2.75-5.56,12.49,12.49,0,0,0-4.53-3.29,15.14,15.14,0,0,0-6.24-1.17H393.4Zm3.36-40.27a31.7,31.7,0,0,1,8.85,1.24A21.67,21.67,0,0,1,413,6.17a23.23,23.23,0,0,1,6.58,8.24A23.25,23.25,0,0,1,422,24.9a25.34,25.34,0,0,1-.62,5.56,25,25,0,0,1-1.79,5.14,22.19,22.19,0,0,1-2.88,4.6A21.66,21.66,0,0,1,413,44a19,19,0,0,1-7.48,3.5,37,37,0,0,1-8.78,1H382.7V11.32c0-1.56-.05-2.93-.14-4.12a5.49,5.49,0,0,0-1.1-3,4.2,4.2,0,0,0-1.37-1.09,3.51,3.51,0,0,0-1.65-.62V1.23Zm105.62,29.5a22.69,22.69,0,0,1-1.44,8.51,16.27,16.27,0,0,1-3.84,6,14.71,14.71,0,0,1-5.76,3.43,21.22,21.22,0,0,1-7.07,1.16,22.46,22.46,0,0,1-7.34-1.16,15.73,15.73,0,0,1-5.83-3.36,16.64,16.64,0,0,1-3.91-5.9,23.84,23.84,0,0,1-1.37-8.51V11.32c0-1.56-.05-2.93-.14-4.12a5.49,5.49,0,0,0-1.09-3,4.25,4.25,0,0,0-1.38-1.09,3.47,3.47,0,0,0-1.64-.62V1.23h14.95V31.56a14.25,14.25,0,0,0,.76,4.94,9.64,9.64,0,0,0,2,3.29,8,8,0,0,0,2.88,1.85,10.62,10.62,0,0,0,3.43.55q4.53,0,6.72-3.09a14.16,14.16,0,0,0,2.26-8.44V1.23h7.82ZM580.86,13.1a13.38,13.38,0,0,0-2.13-2.4,15.86,15.86,0,0,0-2.67-1.92,11.1,11.1,0,0,0-2.95-1.23,10,10,0,0,0-3-.48,12.57,12.57,0,0,0-4.32.82,10.33,10.33,0,0,0-4,2.88,17.1,17.1,0,0,0-3,5.49,27.12,27.12,0,0,0-1.17,8.64A21.81,21.81,0,0,0,559,33.61a16,16,0,0,0,3.78,5.49A13,13,0,0,0,567.69,42a16.16,16.16,0,0,0,4.87.83,10.79,10.79,0,0,0,4.18-.83,20.14,20.14,0,0,0,3.64-2,24.07,24.07,0,0,0,3.36-2.81v9.19a17.14,17.14,0,0,1-3.43,1.72,28.39,28.39,0,0,1-4.25,1.1,29,29,0,0,1-6,.55,30.18,30.18,0,0,1-8.78-1.31,22,22,0,0,1-7.69-4.32,22.26,22.26,0,0,1-5.42-7.68,28.93,28.93,0,0,1-2.05-11.53A28.94,28.94,0,0,1,548,14.13a22.31,22.31,0,0,1,5.14-7.75,21.67,21.67,0,0,1,7.62-4.73A26.25,26.25,0,0,1,570.09,0,28.48,28.48,0,0,1,575,.41a33.54,33.54,0,0,1,4.25,1,32.66,32.66,0,0,1,3.43,1.24c1,.41,1.78.75,2.33,1Zm58.77,35.4h-10.7V11.32c0-1.56,0-2.93-.14-4.12a5.49,5.49,0,0,0-1.09-3,5.34,5.34,0,0,0-1.44-1.09,3.47,3.47,0,0,0-1.58-.62V1.23h15Zm82.29,0h-9.61L696,14l.34,34.51H686.25V11.32c0-1.56,0-2.93-.14-4.12a5.49,5.49,0,0,0-1.1-3,4.31,4.31,0,0,0-1.37-1.09A3.51,3.51,0,0,0,682,2.47V1.23h16.47l14,29.5L712,1.23h9.95Zm83.77-2.61c-1.05.51-2.21,1-3.49,1.51s-2.61.87-4,1.24a33.72,33.72,0,0,1-4.12.82,23.59,23.59,0,0,1-3.91.34,29.48,29.48,0,0,1-10.08-1.64,21.51,21.51,0,0,1-7.69-4.8,22.15,22.15,0,0,1-5-7.83A30.51,30.51,0,0,1,765.7,24.9a29.14,29.14,0,0,1,1.85-10.77,22.33,22.33,0,0,1,5.15-7.75,21.54,21.54,0,0,1,7.61-4.73A26.32,26.32,0,0,1,789.64,0a27.92,27.92,0,0,1,4.8.41,33.3,33.3,0,0,1,4.26,1c1.32.41,2.49.82,3.5,1.24s1.78.75,2.33,1l-4.12,9.4a14.29,14.29,0,0,0-4.73-4.32,11.65,11.65,0,0,0-6-1.71,12.61,12.61,0,0,0-4.32.82,10.47,10.47,0,0,0-4.05,2.88,17.29,17.29,0,0,0-3,5.49,27.43,27.43,0,0,0-1.16,8.64,24.38,24.38,0,0,0,1,7.34A17.13,17.13,0,0,0,781,37.8a12.73,12.73,0,0,0,4.39,3.57,13.16,13.16,0,0,0,5.69,1.23,14.23,14.23,0,0,0,2-.14,7.27,7.27,0,0,0,2-.55V25.73h10.63Z"/><path class="cls-2" d="M435.59,233.5c13.48-39.05,25.62-85.37,26.7-103.41h32.63L441.79,274.17H415.36L364.65,130.09h35.07Z"/><path class="cls-2" d="M592.84,274.44h-9.17c-3.78-2.16-6.48-3-9.17-3s-6.21,1.08-9.71,2.43a50.13,50.13,0,0,1-20,4.31c-20.23,0-36.14-10-44.24-25-5.12-9.16-7.28-19.93-7.28-31,0-22.35,9.17-37.44,22.39-47.67,9.17-7,21.58-10.23,33.17-10.23a77.53,77.53,0,0,1,23.74,4.31L592.84,164Zm-44-88.07c-12.13,0-23.73,10.77-23.73,34.47,0,14,3.77,24.51,10.25,30.17,3.23,2.69,7,4.84,12.14,4.84A26.84,26.84,0,0,0,562.09,251V189.6A30.82,30.82,0,0,0,548.87,186.37Z"/><path class="cls-2" d="M685.34,274.17v-59c0-9.43-1.34-15.89-4-20.2-3.24-4.58-8.63-7-14.57-7s-11.32,1.88-15.37,3.5V273.9h-31V167.25h9.44c4.59,2.42,7,3,9.44,3,8.9,0,16.19-5.92,31.56-5.92,16.72,0,30.21,6.19,38.3,18,5.12,8.08,7.28,19.12,7.28,30.44v61.4Z"/><path class="cls-2" d="M807.26,263.39c-10.79,7-26.44,13.47-38.84,13.47-7.29,0-15.11-2.15-19.69-7.81-4.32-4.58-6.48-12.12-6.48-21.81V136.55l31-7.27v38h28.05v21H773.27v57.36c0,5.12,3,7,5.93,7,5.67,0,16.46-4.31,21.85-6.46Z"/><path class="cls-2" d="M921.63,274.44h-9.17c-3.78-2.16-6.48-3-9.18-3s-6.2,1.08-9.71,2.43a50.09,50.09,0,0,1-20,4.31c-20.23,0-36.14-10-44.23-25-5.12-9.16-7.28-19.93-7.28-31,0-22.35,9.17-37.44,22.38-47.67,9.17-7,21.58-10.23,33.18-10.23a77.46,77.46,0,0,1,23.73,4.31L921.63,164Zm-43.7-88.07c-12.14,0-23.74,10.77-23.74,34.47,0,14,3.78,24.51,10.25,30.17,3.24,2.69,7,4.84,12.14,4.84A26.81,26.81,0,0,0,891.14,251V189.6A30.78,30.78,0,0,0,877.93,186.37Z"/><path class="cls-2" d="M1047.58,277.13c0,36.09-17.53,53.86-52.59,53.86-12.41,0-28.59-3.77-40.73-9.15l6.2-27.2c15.65,8.34,28.32,14,37.76,14,11.06,0,17.27-8.08,17.81-33.66-5.94,1.61-11.06,3-19.15,3-35.07,0-52.6-28-52.6-57.1,0-31.24,22.39-57.09,54.21-57.09a62.49,62.49,0,0,1,21.85,3.77c3.24,1.35,6.2,2.42,8.36,2.42,3.24,0,5.4-.81,9.44-3h9.17V277.13Zm-44.23-90.22c-17.26,0-27,15.35-27,33.13,0,21.81,9.71,35.81,24.81,35.81,7.55,0,10.79-1.34,12.68-3.23a13.43,13.43,0,0,0,2.43-7.81V189.87C1013.33,188,1009.55,186.91,1003.35,186.91Z"/><path class="cls-2" d="M1125.26,278.21c-31.83,0-55-24.78-55-56.56,0-32.59,23.73-56.82,54.48-56.82,25.62,0,48.55,17.5,48.55,49,0,2.69-.27,8.08-.81,12.93l-69.86,1.35c2.7,19.39,13.49,27.73,27,27.73,9.71,0,20.5-3.77,32.1-10.77l9.71,17.24C1155.74,273.36,1141.44,278.21,1125.26,278.21Zm15.37-71.91c-.27-15.35-7.82-21-16.18-21-9.17,0-18.61,7.55-20,22.9Z"/><path class="cls-1" d="M47.74,179.91H33.44v36.62H46.93c14,0,18.88-11.31,18.88-19.12C65.81,188.26,59.88,179.91,47.74,179.91Zm27,94.53-29.13-43.9H33.71v43.9H10.25V188.53c0-7,0-12.66-3-16.43a12.27,12.27,0,0,0-7.28-4V165.9H51.52c10.51,0,19.95,2.16,27,7.28s11.59,12.92,11.59,23.69a30.45,30.45,0,0,1-7.55,19.66,34.62,34.62,0,0,1-12.67,9.16L103,274.44Z"/><path class="cls-1" d="M161,210.07c9.44,0,16.45-6.19,16.45-15.89,0-7.81-6.47-14.27-17.53-14.27H146.18v30.16Zm0,50.63c14,0,21.57-8.88,21.57-20.47,0-10-7.82-16.42-18.88-16.42h-17.8V260.7Zm5.39-94.53c24.28,0,35.33,13.2,35.33,26.4,0,11-6.47,18.58-16.45,22.35,15.11,4.85,22.12,13.46,22.12,26.93,0,8.08-3.78,16.43-10.79,22.62-6.74,6.2-17.8,10-29.13,10h-45V188.53c0-7,0-12.66-3-16.43a12.27,12.27,0,0,0-7.28-4V165.9h54.21Z"/><path class="cls-1" d="M308.83,190.41c-5.4-7.54-15.38-13.46-25.63-13.46-13.75,0-31.55,10-31.55,43.62,0,33.94,22.65,43.63,37.49,43.63S315,252.35,315,252.35v17.78s-10.25,7.27-31.83,7.27c-28.32,0-56.64-15.62-56.64-57.09,0-37.44,25.63-57.1,56.64-57.1,15.65,0,29.4,5.66,34.26,8.08Z"/></svg>