<svg width="90" height="90" viewBox="0 0 90 90" fill="none" xmlns="http://www.w3.org/2000/svg">
<path fill-rule="evenodd" clip-rule="evenodd" d="M88.379 26.5082L79.3029 11.443C78.6317 10.3377 77.433 9.66211 76.1399 9.66035H14.0529C12.7036 9.6428 11.4527 10.3642 10.792 11.5408L2.43333 26.5299C1.69616 27.8345 1.8252 29.4561 2.75942 30.6277L42.1725 80.2364C42.8663 81.1141 43.9232 81.6265 45.042 81.6277C46.1594 81.6551 47.2281 81.1708 47.9442 80.3125L88.0964 30.7364C89.0695 29.5264 89.1825 27.837 88.379 26.5082ZM85.9767 27.9538H62.3788L76.8136 12.8016C76.8136 12.8016 76.8788 12.8016 76.9006 12.8886L85.9767 27.9538ZM29.9115 29.0082L45.0637 78.4973L60.4441 29.0082H29.9115ZM44.7263 12.4647H46.085L59.9763 27.9538H30.4002L44.7263 12.4647ZM14.3679 12.4647L29.194 27.6821L43.2593 12.4647H14.3679ZM47.4987 12.4647H75.6835L61.1726 27.6821L47.4987 12.4647ZM27.9545 27.9538L13.2806 12.9212L4.8567 27.9538H27.9545ZM5.05293 29.0082H28.8138L43.6942 77.6169L5.05293 29.0082ZM61.5423 29.0082L46.4227 77.6712L85.8792 29.0082H61.5423Z" fill="#006AC3"/>
<mask id="mask0" mask-type="alpha" maskUnits="userSpaceOnUse" x="1" y="7" width="88" height="73">
<path fill-rule="evenodd" clip-rule="evenodd" d="M88.379 24.5516L79.3029 9.48641C78.6317 8.38114 77.433 7.70557 76.1399 7.7038H14.0529C12.7036 7.68626 11.4527 8.40764 10.792 9.58424L2.43333 24.5734C1.69616 25.878 1.8252 27.4996 2.75942 28.6712L42.1725 78.2799C42.8663 79.1576 43.9232 79.67 45.042 79.6712C46.1594 79.6985 47.2281 79.2142 47.9442 78.356L88.0964 28.7799C89.0695 27.5698 89.1825 25.8805 88.379 24.5516ZM85.9767 25.9973H62.3788L76.8136 10.8451C76.8136 10.8451 76.8788 10.8451 76.9006 10.9321L85.9767 25.9973ZM29.9115 27.0516L45.0637 76.5407L60.4441 27.0516H29.9115ZM44.7263 10.5081H46.085L59.9763 25.9973H30.4002L44.7263 10.5081ZM14.3679 10.5081L29.194 25.7255L43.2592 10.5081H14.3679ZM47.4987 10.5081H75.6835L61.1726 25.7255L47.4987 10.5081ZM27.9545 25.9973L13.2806 10.9647L4.8567 25.9973H27.9545ZM5.05293 27.0516H28.8138L43.6942 75.6603L5.05293 27.0516ZM61.5423 27.0516L46.4227 75.7147L85.8792 27.0516H61.5423Z" fill="white"/>
</mask>
<g mask="url(#mask0)">
</g>
</svg>
