<svg width="46" height="46" viewBox="0 0 46 46" fill="none" xmlns="http://www.w3.org/2000/svg">
<path fill-rule="evenodd" clip-rule="evenodd" d="M6.58758 13.1634H22.1653V7.23168H6.58758V13.1634ZM22.5993 6.3688H6.15447C5.91469 6.3688 5.72072 6.56176 5.72072 6.80028V13.595C5.72072 13.8335 5.91469 14.0265 6.15447 14.0265H22.5993C22.8395 14.0265 23.0331 13.8335 23.0331 13.595V6.80028C23.0331 6.56176 22.8395 6.3688 22.5993 6.3688ZM42.7729 20.0137H44.2646V18.9343H42.7729V20.0137ZM27.8738 13.1265H26.8339C26.7572 13.1265 26.6836 13.1396 26.6125 13.1583V10.7368C26.6836 10.7558 26.7572 10.7689 26.8339 10.7689H27.8738V13.1265ZM27.019 39.0661V41.5598H1.73468V39.0661H4.36527C4.41558 39.0692 4.46486 39.0737 4.51586 39.0737H24.2378C24.2884 39.0737 24.3384 39.0692 24.388 39.0661H27.019ZM3.87696 35.5096H24.8772V36.7116C24.8772 37.0367 24.6302 37.3025 24.3137 37.3402H4.44083C4.12403 37.3025 3.87696 37.0367 3.87696 36.7116V35.5096ZM3.87696 35.0781H24.8772V20.7407H3.87696V35.0781ZM3.87696 4.70875C3.87696 4.35803 4.16358 4.07256 4.51613 4.07256H24.2381C24.5903 4.07256 24.8772 4.35803 24.8772 4.70875V19.8778H3.87696V4.70875ZM41.8093 16.2798H39.3935L40.6333 14.5594V12.0999H41.8093V16.2798ZM38.5285 15.9995C38.3422 15.8197 38.2252 15.569 38.2252 15.2912V12.0999H39.7662V14.2822L38.5285 15.9995ZM45.2793 18.914V9.78991L40.0424 3.98244L39.3703 4.58238L37.3161 2.35556L33.7444 1L33.1261 2.61307L36.315 3.82296L38.0788 5.73496L37.459 6.28727L38.5673 7.51614C37.6183 7.79644 36.9236 8.67046 36.9236 9.70361V15.2912C36.9236 16.5504 37.9535 17.5743 39.2193 17.5743H41.8093V18.914H41.0383V20.8767C41.0383 21.3534 41.4266 21.7397 41.9058 21.7397H42.4464V30.2728C42.4464 32.0881 40.9613 33.5652 39.1361 33.5652H38.7151C36.8896 33.5652 35.4041 32.0881 35.4041 30.2728V16.0786C35.4041 13.3122 33.1403 11.0616 30.3581 11.0616H29.6086V9.90589C29.6086 9.42918 29.2203 9.04292 28.7411 9.04292H26.8336C26.7569 9.04292 26.6834 9.05603 26.6122 9.07502V4.70872C26.6122 3.40632 25.5473 2.34658 24.2381 2.34658H4.51617C3.2066 2.34658 2.14201 3.40632 2.14201 4.70872V36.7116C2.14201 36.9294 2.17428 37.1396 2.23015 37.3402H0.867492C0.38829 37.3402 0 37.7264 0 38.2031V42.4227C0 42.8995 0.38829 43.2857 0.867492 43.2857H27.8868C28.3656 43.2857 28.7543 42.8995 28.7543 42.4227V38.2031C28.7543 37.7264 28.3656 37.3402 27.8868 37.3402H26.5245C26.58 37.1396 26.6122 36.9294 26.6122 36.7116V14.8204C26.6834 14.839 26.7569 14.8525 26.8336 14.8525H28.7411C29.2203 14.8525 29.6086 14.4658 29.6086 13.9895V12.7875H30.3581C32.1836 12.7875 33.6691 14.2643 33.6691 16.0786V30.2728C33.6691 33.0401 35.9326 35.2911 38.7151 35.2911H39.1361C41.9183 35.2911 44.1814 33.0401 44.1814 30.2728V21.7397H45.1325C45.6117 21.7397 46 21.3534 46 20.8767V18.914H45.2793ZM14.3773 15.8794C13.8759 15.8794 13.4699 16.2833 13.4699 16.7817C13.4699 17.2802 13.8759 17.6841 14.3773 17.6841C14.8783 17.6841 15.2847 17.2802 15.2847 16.7817C15.2847 16.2833 14.8783 15.8794 14.3773 15.8794Z" fill="#006AC3"/>
<mask id="mask0" mask-type="alpha" maskUnits="userSpaceOnUse" x="0" y="1" width="46" height="43">
<path fill-rule="evenodd" clip-rule="evenodd" d="M6.58758 13.1634H22.1653V7.23168H6.58758V13.1634ZM22.5993 6.3688H6.15447C5.91469 6.3688 5.72072 6.56176 5.72072 6.80028V13.595C5.72072 13.8335 5.91469 14.0265 6.15447 14.0265H22.5993C22.8395 14.0265 23.0331 13.8335 23.0331 13.595V6.80028C23.0331 6.56176 22.8395 6.3688 22.5993 6.3688ZM42.7729 20.0137H44.2646V18.9343H42.7729V20.0137ZM27.8738 13.1265H26.8339C26.7572 13.1265 26.6836 13.1396 26.6125 13.1583V10.7368C26.6836 10.7558 26.7572 10.7689 26.8339 10.7689H27.8738V13.1265ZM27.019 39.0661V41.5598H1.73468V39.0661H4.36527C4.41558 39.0692 4.46486 39.0737 4.51586 39.0737H24.2378C24.2884 39.0737 24.3384 39.0692 24.388 39.0661H27.019ZM3.87696 35.5096H24.8772V36.7116C24.8772 37.0367 24.6302 37.3025 24.3137 37.3402H4.44083C4.12403 37.3025 3.87696 37.0367 3.87696 36.7116V35.5096ZM3.87696 35.0781H24.8772V20.7407H3.87696V35.0781ZM3.87696 4.70875C3.87696 4.35803 4.16358 4.07256 4.51613 4.07256H24.2381C24.5903 4.07256 24.8772 4.35803 24.8772 4.70875V19.8778H3.87696V4.70875ZM41.8093 16.2798H39.3935L40.6333 14.5594V12.0999H41.8093V16.2798ZM38.5285 15.9995C38.3422 15.8197 38.2252 15.569 38.2252 15.2912V12.0999H39.7662V14.2822L38.5285 15.9995ZM45.2793 18.914V9.78991L40.0424 3.98244L39.3703 4.58238L37.3161 2.35556L33.7444 1L33.1261 2.61307L36.315 3.82296L38.0788 5.73496L37.459 6.28727L38.5673 7.51614C37.6183 7.79644 36.9236 8.67046 36.9236 9.70361V15.2912C36.9236 16.5504 37.9535 17.5743 39.2193 17.5743H41.8093V18.914H41.0383V20.8767C41.0383 21.3534 41.4266 21.7397 41.9058 21.7397H42.4464V30.2728C42.4464 32.0881 40.9613 33.5652 39.1361 33.5652H38.7151C36.8896 33.5652 35.4041 32.0881 35.4041 30.2728V16.0786C35.4041 13.3122 33.1403 11.0616 30.3581 11.0616H29.6086V9.90589C29.6086 9.42918 29.2203 9.04292 28.7411 9.04292H26.8336C26.7569 9.04292 26.6834 9.05603 26.6122 9.07502V4.70872C26.6122 3.40632 25.5473 2.34658 24.2381 2.34658H4.51617C3.2066 2.34658 2.14201 3.40632 2.14201 4.70872V36.7116C2.14201 36.9294 2.17428 37.1396 2.23015 37.3402H0.867492C0.38829 37.3402 0 37.7264 0 38.2031V42.4227C0 42.8995 0.38829 43.2857 0.867492 43.2857H27.8868C28.3656 43.2857 28.7543 42.8995 28.7543 42.4227V38.2031C28.7543 37.7264 28.3656 37.3402 27.8868 37.3402H26.5245C26.58 37.1396 26.6122 36.9294 26.6122 36.7116V14.8204C26.6834 14.839 26.7569 14.8525 26.8336 14.8525H28.7411C29.2203 14.8525 29.6086 14.4658 29.6086 13.9895V12.7875H30.3581C32.1836 12.7875 33.6691 14.2643 33.6691 16.0786V30.2728C33.6691 33.0401 35.9326 35.2911 38.7151 35.2911H39.1361C41.9183 35.2911 44.1814 33.0401 44.1814 30.2728V21.7397H45.1325C45.6117 21.7397 46 21.3534 46 20.8767V18.914H45.2793ZM14.3773 15.8794C13.8759 15.8794 13.4699 16.2833 13.4699 16.7817C13.4699 17.2802 13.8759 17.6841 14.3773 17.6841C14.8783 17.6841 15.2847 17.2802 15.2847 16.7817C15.2847 16.2833 14.8783 15.8794 14.3773 15.8794Z" fill="white"/>
</mask>
<g mask="url(#mask0)">
<rect x="0.285156" y="-0.714355" width="46" height="46" fill="#006AC3"/>
</g>
</svg>
