<svg width="77" height="77" viewBox="0 0 77 77" fill="none" xmlns="http://www.w3.org/2000/svg">
<path fill-rule="evenodd" clip-rule="evenodd" d="M57.0548 73.6553C57.2596 73.6553 57.4656 73.6517 57.6723 73.6439C66.8123 73.3102 73.977 65.6034 73.6433 56.4626C73.3169 47.5009 66.042 40.4799 57.0817 40.4799V37.3018C57.2073 37.3018 57.3323 37.3053 57.4573 37.3089C57.495 37.3099 57.5327 37.311 57.5705 37.312L57.5752 9.48595H9.27275V44.693C9.27275 48.2628 11.1241 51.4535 12.6766 53.5019C15.7738 57.5863 21.925 63.1405 33.6741 66.4845C35.541 65.9532 37.257 65.3632 38.8478 64.7343C37.944 62.5906 37.4049 60.2511 37.3157 57.7881C36.918 46.8786 45.4381 37.7127 56.3474 37.315C56.5924 37.306 56.8367 37.3018 57.0805 37.3018H57.0817L57.0805 40.4799C56.8757 40.4799 56.669 40.4835 56.463 40.4913C52.0355 40.6524 47.9357 42.5289 44.9194 45.7735C41.9025 49.0187 40.3302 53.2444 40.4913 57.6719C40.8184 66.6342 48.0938 73.6553 57.0548 73.6553ZM7.4428 57.176C11.3234 62.2953 19.0247 69.2451 33.741 73.548C36.9765 72.6023 39.8659 71.5259 42.4557 70.3711C41.1518 68.9408 40.0551 67.3158 39.2118 65.5441C37.5138 66.2173 35.678 66.8462 33.6739 67.4081C21.5853 64.0203 15.2136 58.32 11.9679 54.0386C9.93145 51.3517 8.38376 48.0646 8.38376 44.693V8.5971H58.4639L58.4591 37.3533C60.2045 37.4755 61.8911 37.8235 63.4874 38.3715L63.4933 3.32502H3.32561V46.6774C3.32561 50.8659 5.56449 54.6987 7.4428 57.176ZM66.645 39.7797C72.498 43.0297 76.5577 49.169 76.82 56.347C77.2178 67.2559 68.6965 76.4225 57.7877 76.8202C57.5428 76.8292 57.2978 76.8333 57.0546 76.8333C52.5206 76.8333 48.3237 75.2922 44.9726 72.6957C41.7185 74.229 37.9996 75.6402 33.741 76.8333C17.6933 72.3357 9.23488 64.7678 4.92602 59.0843C2.22175 55.5168 0.166748 51.1534 0.166748 46.6774V0.166687H66.6522L66.645 39.7797ZM54.9631 59.9562L63.4196 50.9988C64.0418 50.3411 65.0926 50.3019 65.7624 50.9145C66.0867 51.2113 66.2742 51.615 66.2905 52.0507C66.3068 52.487 66.1494 52.9031 65.8474 53.2218L56.2623 63.3747C55.9615 63.694 55.5515 63.878 55.1084 63.8947C55.0879 63.8953 55.0674 63.8959 55.0463 63.8959C54.6261 63.8959 54.2276 63.7415 53.9183 63.4572L48.6118 58.6004C47.942 57.9872 47.904 56.9526 48.5256 56.2937C49.1484 55.6348 50.1992 55.5962 50.869 56.2088L54.9631 59.9562Z" fill="#006AC3"/>
<mask id="mask0" mask-type="alpha" maskUnits="userSpaceOnUse" x="0" y="0" width="77" height="77">
<path fill-rule="evenodd" clip-rule="evenodd" d="M57.0548 73.6553C57.2596 73.6553 57.4656 73.6517 57.6723 73.6439C66.8123 73.3102 73.977 65.6034 73.6433 56.4626C73.3169 47.5009 66.042 40.4799 57.0817 40.4799V37.3018C57.2073 37.3018 57.3323 37.3053 57.4573 37.3089C57.495 37.3099 57.5327 37.311 57.5705 37.312L57.5752 9.48595H9.27275V44.693C9.27275 48.2628 11.1241 51.4535 12.6766 53.5019C15.7738 57.5863 21.925 63.1405 33.6741 66.4845C35.541 65.9532 37.257 65.3632 38.8478 64.7343C37.944 62.5906 37.4049 60.2511 37.3157 57.7881C36.918 46.8786 45.4381 37.7127 56.3474 37.315C56.5924 37.306 56.8367 37.3018 57.0805 37.3018H57.0817L57.0805 40.4799C56.8757 40.4799 56.669 40.4835 56.463 40.4913C52.0355 40.6524 47.9357 42.5289 44.9194 45.7735C41.9025 49.0187 40.3302 53.2444 40.4913 57.6719C40.8184 66.6342 48.0938 73.6553 57.0548 73.6553ZM7.4428 57.176C11.3234 62.2953 19.0247 69.2451 33.741 73.548C36.9765 72.6023 39.8659 71.5259 42.4557 70.3711C41.1518 68.9408 40.0551 67.3158 39.2118 65.5441C37.5138 66.2173 35.678 66.8462 33.6739 67.4081C21.5853 64.0203 15.2136 58.32 11.9679 54.0386C9.93145 51.3517 8.38376 48.0646 8.38376 44.693V8.5971H58.4639L58.4591 37.3533C60.2045 37.4755 61.8911 37.8235 63.4874 38.3715L63.4933 3.32502H3.32561V46.6774C3.32561 50.8659 5.56449 54.6987 7.4428 57.176ZM66.645 39.7797C72.498 43.0297 76.5577 49.169 76.82 56.347C77.2178 67.2559 68.6965 76.4225 57.7877 76.8202C57.5428 76.8292 57.2978 76.8333 57.0546 76.8333C52.5206 76.8333 48.3237 75.2922 44.9726 72.6957C41.7185 74.229 37.9996 75.6402 33.741 76.8333C17.6933 72.3357 9.23488 64.7678 4.92602 59.0843C2.22175 55.5168 0.166748 51.1534 0.166748 46.6774V0.166687H66.6522L66.645 39.7797ZM54.9631 59.9562L63.4196 50.9988C64.0418 50.3411 65.0926 50.3019 65.7624 50.9145C66.0867 51.2113 66.2742 51.615 66.2905 52.0507C66.3068 52.487 66.1494 52.9031 65.8474 53.2218L56.2623 63.3747C55.9615 63.694 55.5515 63.878 55.1084 63.8947C55.0879 63.8953 55.0674 63.8959 55.0463 63.8959C54.6261 63.8959 54.2276 63.7415 53.9183 63.4572L48.6118 58.6004C47.942 57.9872 47.904 56.9526 48.5256 56.2937C49.1484 55.6348 50.1992 55.5962 50.869 56.2088L54.9631 59.9562Z" fill="white"/>
</mask>
<g mask="url(#mask0)">
</g>
</svg>
