<svg width="31" height="32" viewBox="0 0 31 32" fill="none" xmlns="http://www.w3.org/2000/svg">
<path d="M18.4688 5.39981L19.7637 4.8546L18.7227 11.4975L18.7226 11.4975L18.7217 11.5042C18.6583 11.9476 18.9167 12.3001 19.216 12.4634C19.5173 12.6277 19.9654 12.6537 20.2971 12.3253L23.0461 9.66954L23.2923 10.381C23.5559 11.2369 24.4633 11.5974 25.2145 11.4471L25.2272 11.4446L25.2397 11.4414L27.7797 10.7957L26.9875 14.6169C26.8241 15.361 27.2326 16.153 27.9476 16.4708L27.9612 16.4768L27.9751 16.482L28.0931 16.5263L22.2025 21.706C22.2024 21.7061 22.2022 21.7063 22.202 21.7064C21.6157 22.2198 21.3393 23.0677 21.4756 23.844L21.7665 26.0887L15.7715 24.1903L15.7198 24.1739L15.6658 24.169C15.2483 24.1311 14.8184 24.2629 14.4989 24.5248C14.1935 24.2409 13.7686 24.0868 13.2835 24.175L13.2523 24.1807L13.222 24.1903L7.22696 26.0887L7.51792 23.8442C7.65316 23.0781 7.44051 22.2838 6.79463 21.7092C6.79439 21.709 6.79415 21.7088 6.79391 21.7086L0.948512 16.4731L1.07458 16.4258L1.08851 16.4206L1.10209 16.4146C1.81313 16.0986 2.22363 15.3675 2.06358 14.5673L2.06359 14.5673L2.06288 14.5638L1.27003 10.7395L3.81003 11.3852L3.82253 11.3884L3.83517 11.391C4.62524 11.549 5.42867 11.1492 5.746 10.3559L5.75039 10.3449L5.75426 10.3338L6.00363 9.61335L8.75257 12.2691C9.3833 12.8939 10.442 12.3591 10.3292 11.4567L10.3282 11.4487L10.327 11.4408L9.2871 4.85507L10.5809 5.39983C11.294 5.74479 12.1219 5.38849 12.4586 4.79937L12.4587 4.79943L12.4638 4.78997L14.5017 1.03843L16.5835 4.78564C16.9401 5.48402 17.7943 5.72649 18.4688 5.39981Z" stroke="black" stroke-miterlimit="10"/>
<path d="M14.4961 31.0001V13.5815" stroke="black" stroke-miterlimit="10" stroke-linecap="round" stroke-linejoin="round"/>
<path d="M18.2046 18.2451L14.4961 20.886" stroke="black" stroke-miterlimit="10" stroke-linecap="round" stroke-linejoin="round"/>
<path d="M10.8438 18.2451L14.496 20.886" stroke="black" stroke-miterlimit="10" stroke-linecap="round" stroke-linejoin="round"/>
</svg>
