<svg width="55" height="55" viewBox="0 0 55 55" fill="none" xmlns="http://www.w3.org/2000/svg">
<path fill-rule="evenodd" clip-rule="evenodd" d="M41.8016 0.672607H14.0588C12.898 0.672607 11.957 1.61359 11.957 2.77434V52.3752C11.957 53.536 12.898 54.477 14.0588 54.477H41.8016C42.9624 54.477 43.9034 53.536 43.9034 52.3752V2.77434C43.9034 1.61359 42.9624 0.672607 41.8016 0.672607ZM14.0588 10.7403H41.8016V42.1612H14.0588V10.7403ZM41.8016 10.0682V2.77434H14.0588V10.0682H41.8016ZM14.0588 52.3752V42.8334H41.8016V52.3752H14.0588ZM25.4081 6.86432H30.4523C30.638 6.86432 30.7886 6.71376 30.7886 6.52804C30.7886 6.34232 30.638 6.19176 30.4523 6.19176H25.4081C25.2224 6.19176 25.0718 6.34232 25.0718 6.52804C25.0718 6.71376 25.2224 6.86432 25.4081 6.86432ZM26.0746 47.5068C26.0746 46.4818 26.9055 45.6509 27.9304 45.6509C28.9554 45.6509 29.7863 46.4818 29.7863 47.5068C29.7863 48.5317 28.9554 49.3626 27.9304 49.3626C26.9055 49.3626 26.0746 48.5317 26.0746 47.5068ZM26.7472 47.5068C26.7479 48.16 27.2772 48.6894 27.9304 48.69C28.5837 48.6894 29.113 48.16 29.1137 47.5068C29.1128 46.8537 28.5835 46.3246 27.9304 46.3239C27.2774 46.3246 26.7481 46.8537 26.7472 47.5068Z" fill="#006AC3"/>
<path fill-rule="evenodd" clip-rule="evenodd" d="M29.2527 26.6756L27.8518 25.9754C25.3474 24.7353 24.7551 24.3829 24.7551 22.8581C24.7551 20.8951 26.4839 20.195 28.1002 20.195C28.8699 20.195 31.3848 20.3876 31.3848 22.8581C31.3848 23.4233 31.8407 23.8817 32.4025 23.8817C32.9626 23.8817 33.4206 23.4233 33.4206 22.8581C33.4206 20.3274 31.6918 18.547 29.033 18.2105V16.4923C29.033 15.9271 28.5767 15.4688 28.0149 15.4688C27.4527 15.4688 26.9967 15.9271 26.9967 16.4923V18.229C24.3974 18.6147 22.7188 20.3775 22.7188 22.8581C22.7188 25.7118 24.4945 26.5919 26.952 27.8118L28.3529 28.5095C30.8573 29.75 31.4454 30.102 31.4454 31.6251C31.4454 34.0671 28.8841 34.2596 28.1002 34.2596C27.3163 34.2596 24.7551 34.0671 24.7551 31.6251C24.7551 31.0641 24.2987 30.6016 23.7369 30.6016C23.1751 30.6016 22.7188 31.0641 22.7188 31.6251C22.7188 34.0893 24.3974 35.8425 26.9967 36.2256V37.985C26.9967 38.5477 27.4527 39.0082 28.0149 39.0082C28.5788 39.0082 29.033 38.5477 29.033 37.985V36.2453C31.7282 35.9144 33.4813 34.1423 33.4796 31.6251C33.4796 28.7715 31.706 27.8934 29.2527 26.6756Z" fill="#006AC3"/>
<mask id="mask0" mask-type="alpha" maskUnits="userSpaceOnUse" x="22" y="15" width="12" height="25">
<path fill-rule="evenodd" clip-rule="evenodd" d="M29.2527 26.6756L27.8518 25.9754C25.3474 24.7353 24.7551 24.3829 24.7551 22.8581C24.7551 20.8951 26.4839 20.195 28.1002 20.195C28.8699 20.195 31.3848 20.3876 31.3848 22.8581C31.3848 23.4233 31.8407 23.8817 32.4025 23.8817C32.9626 23.8817 33.4206 23.4233 33.4206 22.8581C33.4206 20.3274 31.6918 18.547 29.033 18.2105V16.4923C29.033 15.9271 28.5767 15.4688 28.0149 15.4688C27.4527 15.4688 26.9967 15.9271 26.9967 16.4923V18.229C24.3974 18.6147 22.7188 20.3775 22.7188 22.8581C22.7188 25.7118 24.4945 26.5919 26.952 27.8118L28.3529 28.5095C30.8573 29.75 31.4454 30.102 31.4454 31.6251C31.4454 34.0671 28.8841 34.2596 28.1002 34.2596C27.3163 34.2596 24.7551 34.0671 24.7551 31.6251C24.7551 31.0641 24.2987 30.6016 23.7369 30.6016C23.1751 30.6016 22.7188 31.0641 22.7188 31.6251C22.7188 34.0893 24.3974 35.8425 26.9967 36.2256V37.985C26.9967 38.5477 27.4527 39.0082 28.0149 39.0082C28.5788 39.0082 29.033 38.5477 29.033 37.985V36.2453C31.7282 35.9144 33.4813 34.1423 33.4796 31.6251C33.4796 28.7715 31.706 27.8934 29.2527 26.6756Z" fill="white"/>
</mask>
<g mask="url(#mask0)">
</g>
</svg>
