<svg width="31" height="31" viewBox="0 0 31 31" fill="none" xmlns="http://www.w3.org/2000/svg">
<path fill-rule="evenodd" clip-rule="evenodd" d="M21.0235 29.7662L20.7065 27.2422L19.8285 27.5452C18.3615 28.0492 16.8215 28.3062 15.2525 28.3062C13.4315 28.3062 11.6665 27.9652 10.0035 27.2932L9.09451 26.9262L8.74151 29.7662H5.02551L4.83251 23.5852L4.67051 23.3872C2.84951 21.1602 1.88551 18.4932 1.88551 15.6752C1.88551 15.3022 1.90551 14.9232 1.94451 14.5132L1.99651 13.9872C1.35651 13.7782 0.836507 13.2802 0.614507 12.6202C0.315507 11.7362 0.615507 10.7642 1.35751 10.1992C1.73351 9.91521 2.19751 9.75921 2.66851 9.75921C2.91051 9.75921 3.14651 9.79821 3.37251 9.87621L3.59651 9.49621C5.96351 5.51721 10.4305 3.04521 15.2525 3.04521C16.3095 3.04521 17.3705 3.16421 18.4035 3.40021L18.8145 3.49521L19.1105 3.19321C22.0275 0.422208 26.1455 1.88721 26.1455 1.88721L23.5355 5.74521L24.0615 6.18121C25.9765 7.77021 27.3665 9.82121 28.0775 12.1112L28.2075 12.5292L30.3095 12.9952V17.8692L28.3365 18.3062L28.2195 18.7502C27.6845 20.7712 26.6085 22.6582 25.1075 24.2062L24.9035 24.4162L24.7365 29.7662H21.0235Z" stroke="black" stroke-linecap="round" stroke-linejoin="round"/>
<path d="M10.5586 7.75889C11.9196 6.89589 13.5496 6.41089 15.2536 6.41089" stroke="black" stroke-linecap="round" stroke-linejoin="round"/>
<path fill-rule="evenodd" clip-rule="evenodd" d="M23.1383 11.5471C22.5243 11.5471 22.0273 12.0451 22.0273 12.6581C22.0273 13.2721 22.5243 13.7691 23.1383 13.7691C23.5343 13.7691 23.9023 13.5571 24.1003 13.2141C24.2983 12.8701 24.2983 12.4461 24.1003 12.1031C23.9023 11.7591 23.5343 11.5471 23.1383 11.5471Z" fill="black"/>
</svg>
