<svg width="46" height="46" viewBox="0 0 46 46" fill="none" xmlns="http://www.w3.org/2000/svg">
<mask id="mask0" mask-type="alpha" maskUnits="userSpaceOnUse" x="1" y="0" width="45" height="45">
<path fill-rule="evenodd" clip-rule="evenodd" d="M2.75781 22.5C2.75781 33.9374 12.0626 43.2422 23.5 43.2422C34.937 43.2422 44.2422 33.9374 44.2422 22.5C44.2422 11.0626 34.937 1.75781 23.5 1.75781C12.0626 1.75781 2.75781 11.0626 2.75781 22.5ZM1 22.5C1 10.0737 11.0733 0 23.5 0C35.9263 0 46 10.0737 46 22.5C46 34.9263 35.9263 45 23.5 45C11.0733 45 1 34.9263 1 22.5ZM8.03125 22.3594C8.03125 30.9663 15.0337 37.9688 23.6406 37.9688C32.2472 37.9688 39.2496 30.9663 39.2496 22.3594C39.2496 13.7524 32.2472 6.75 23.6406 6.75C15.0337 6.75 8.03125 13.7524 8.03125 22.3594ZM7.46875 22.3594C7.46875 13.4279 14.7092 6.1875 23.6406 6.1875C32.5717 6.1875 39.8125 13.4279 39.8125 22.3594C39.8125 31.2908 32.5717 38.5312 23.6406 38.5312C14.7092 38.5312 7.46875 31.2908 7.46875 22.3594Z" fill="white"/>
</mask>
<g mask="url(#mask0)">
<rect x="1" width="45" height="45" fill="#006AC3"/>
</g>
<path d="M21.4236 18.6829L23.5 14.6412L25.5764 18.6829C25.7579 19.0362 26.0965 19.2822 26.4886 19.3457L30.9741 20.0715L27.7719 23.2953C27.492 23.577 27.3627 23.9751 27.4235 24.3676L28.1193 28.8579L24.0638 26.8086C23.7093 26.6294 23.2907 26.6294 22.9362 26.8086L18.8807 28.8579L19.5765 24.3676C19.6373 23.9751 19.508 23.577 19.2281 23.2953L16.0259 20.0715L20.5114 19.3457C20.9035 19.2822 21.2421 19.0362 21.4236 18.6829ZM18.4464 29.0773C18.4465 29.0773 18.4466 29.0772 18.4467 29.0772L18.4464 29.0773Z" stroke="#006AC3" stroke-width="1.5"/>
</svg>
